<mxfile host="app.diagrams.net" agent="Mozilla/5.0 (Windows NT 10.0; Win64; x64) AppleWebKit/537.36 (KHTML, like Gecko) Chrome/138.0.0.0 Safari/537.36" version="28.0.6">
  <diagram name="Page-1" id="q6bwRBrS4y28yhB6IdID">
    <mxGraphModel grid="1" page="1" gridSize="10" guides="1" tooltips="1" connect="1" arrows="1" fold="1" pageScale="1" pageWidth="850" pageHeight="1100" math="0" shadow="0">
      <root>
        <mxCell id="0" />
        <mxCell id="1" parent="0" />
        <mxCell id="6wOYxNDQDc7tmlJQe4-3-23" value="Responsável" style="shape=umlActor;verticalLabelPosition=bottom;verticalAlign=top;html=1;" vertex="1" parent="1">
          <mxGeometry x="60" y="535" width="30" height="60" as="geometry" />
        </mxCell>
        <mxCell id="6wOYxNDQDc7tmlJQe4-3-25" value="Cadastrar Conta do Responsável" style="ellipse;whiteSpace=wrap;html=1;" vertex="1" parent="1">
          <mxGeometry x="175" y="530" width="140" height="70" as="geometry" />
        </mxCell>
        <mxCell id="6wOYxNDQDc7tmlJQe4-3-54" style="edgeStyle=orthogonalEdgeStyle;rounded=0;orthogonalLoop=1;jettySize=auto;html=1;entryX=0.5;entryY=0;entryDx=0;entryDy=0;" edge="1" parent="1" source="6wOYxNDQDc7tmlJQe4-3-46" target="6wOYxNDQDc7tmlJQe4-3-25">
          <mxGeometry relative="1" as="geometry">
            <mxPoint x="299" y="505" as="targetPoint" />
          </mxGeometry>
        </mxCell>
        <mxCell id="6wOYxNDQDc7tmlJQe4-3-46" value="Autenticar Responsável" style="ellipse;whiteSpace=wrap;html=1;" vertex="1" parent="1">
          <mxGeometry x="400" y="430" width="140" height="70" as="geometry" />
        </mxCell>
        <mxCell id="6wOYxNDQDc7tmlJQe4-3-53" style="edgeStyle=orthogonalEdgeStyle;rounded=0;orthogonalLoop=1;jettySize=auto;html=1;entryX=1;entryY=0.5;entryDx=0;entryDy=0;exitX=0;exitY=0.5;exitDx=0;exitDy=0;" edge="1" parent="1" source="6wOYxNDQDc7tmlJQe4-3-50" target="6wOYxNDQDc7tmlJQe4-3-25">
          <mxGeometry relative="1" as="geometry">
            <Array as="points">
              <mxPoint x="360" y="565" />
              <mxPoint x="360" y="565" />
            </Array>
          </mxGeometry>
        </mxCell>
        <mxCell id="6wOYxNDQDc7tmlJQe4-3-50" value="Recuperar Senha" style="ellipse;whiteSpace=wrap;html=1;" vertex="1" parent="1">
          <mxGeometry x="400" y="530" width="140" height="70" as="geometry" />
        </mxCell>
        <mxCell id="6wOYxNDQDc7tmlJQe4-3-55" value="&amp;lt;&amp;lt;extends&amp;gt;&amp;gt;" style="text;html=1;align=center;verticalAlign=middle;resizable=0;points=[];autosize=1;strokeColor=none;fillColor=none;fontSize=9;" vertex="1" parent="1">
          <mxGeometry x="320" y="540" width="80" height="20" as="geometry" />
        </mxCell>
        <mxCell id="6wOYxNDQDc7tmlJQe4-3-56" value="&amp;lt;&amp;lt;extends&amp;gt;&amp;gt;" style="text;html=1;align=center;verticalAlign=middle;resizable=0;points=[];autosize=1;strokeColor=none;fillColor=none;fontSize=9;" vertex="1" parent="1">
          <mxGeometry x="320" y="480" width="80" height="20" as="geometry" />
        </mxCell>
        <mxCell id="6wOYxNDQDc7tmlJQe4-3-57" style="edgeStyle=orthogonalEdgeStyle;rounded=0;orthogonalLoop=1;jettySize=auto;html=1;entryX=1;entryY=0.5;entryDx=0;entryDy=0;" edge="1" parent="1" source="6wOYxNDQDc7tmlJQe4-3-58" target="6wOYxNDQDc7tmlJQe4-3-46">
          <mxGeometry relative="1" as="geometry">
            <mxPoint x="550" y="495" as="targetPoint" />
          </mxGeometry>
        </mxCell>
        <mxCell id="6wOYxNDQDc7tmlJQe4-3-58" value="Vincular Perfil&amp;nbsp;&lt;div&gt;da Criança&lt;/div&gt;" style="ellipse;whiteSpace=wrap;html=1;" vertex="1" parent="1">
          <mxGeometry x="620" y="430" width="140" height="70" as="geometry" />
        </mxCell>
        <mxCell id="6wOYxNDQDc7tmlJQe4-3-59" value="&amp;lt;&amp;lt;extends&amp;gt;&amp;gt;" style="text;html=1;align=center;verticalAlign=middle;resizable=0;points=[];autosize=1;strokeColor=none;fillColor=none;fontSize=9;" vertex="1" parent="1">
          <mxGeometry x="540" y="440" width="80" height="20" as="geometry" />
        </mxCell>
        <mxCell id="6wOYxNDQDc7tmlJQe4-3-62" style="edgeStyle=orthogonalEdgeStyle;rounded=0;orthogonalLoop=1;jettySize=auto;html=1;entryX=0.032;entryY=0.316;entryDx=0;entryDy=0;entryPerimeter=0;exitX=1;exitY=0.5;exitDx=0;exitDy=0;" edge="1" parent="1" source="6wOYxNDQDc7tmlJQe4-3-63" target="6wOYxNDQDc7tmlJQe4-3-46">
          <mxGeometry relative="1" as="geometry">
            <mxPoint x="-47.069999999999936" y="500.0000000000002" as="targetPoint" />
            <Array as="points">
              <mxPoint x="380" y="415" />
              <mxPoint x="380" y="452" />
            </Array>
          </mxGeometry>
        </mxCell>
        <mxCell id="6wOYxNDQDc7tmlJQe4-3-63" value="Definir Limite&amp;nbsp;&lt;div&gt;de Tempo&lt;/div&gt;" style="ellipse;whiteSpace=wrap;html=1;" vertex="1" parent="1">
          <mxGeometry x="180" y="380" width="140" height="70" as="geometry" />
        </mxCell>
        <mxCell id="6wOYxNDQDc7tmlJQe4-3-65" style="edgeStyle=orthogonalEdgeStyle;rounded=0;orthogonalLoop=1;jettySize=auto;html=1;exitX=1;exitY=0.5;exitDx=0;exitDy=0;entryX=0;entryY=0;entryDx=0;entryDy=0;" edge="1" parent="1" source="6wOYxNDQDc7tmlJQe4-3-66" target="6wOYxNDQDc7tmlJQe4-3-46">
          <mxGeometry relative="1" as="geometry">
            <mxPoint x="507" y="433" as="targetPoint" />
          </mxGeometry>
        </mxCell>
        <mxCell id="6wOYxNDQDc7tmlJQe4-3-66" value="Gerenciar Bloqueio de Aplicativos" style="ellipse;whiteSpace=wrap;html=1;" vertex="1" parent="1">
          <mxGeometry x="120" y="310" width="140" height="70" as="geometry" />
        </mxCell>
        <mxCell id="6wOYxNDQDc7tmlJQe4-3-110" style="edgeStyle=orthogonalEdgeStyle;rounded=0;orthogonalLoop=1;jettySize=auto;html=1;entryX=0.345;entryY=-0.002;entryDx=0;entryDy=0;entryPerimeter=0;" edge="1" parent="1" source="6wOYxNDQDc7tmlJQe4-3-69" target="6wOYxNDQDc7tmlJQe4-3-46">
          <mxGeometry relative="1" as="geometry">
            <mxPoint x="470" y="430" as="targetPoint" />
          </mxGeometry>
        </mxCell>
        <mxCell id="6wOYxNDQDc7tmlJQe4-3-69" value="Definir Horários&lt;div&gt;de Uso&lt;/div&gt;" style="ellipse;whiteSpace=wrap;html=1;" vertex="1" parent="1">
          <mxGeometry x="5" y="260" width="140" height="70" as="geometry" />
        </mxCell>
        <mxCell id="6wOYxNDQDc7tmlJQe4-3-111" style="edgeStyle=orthogonalEdgeStyle;rounded=0;orthogonalLoop=1;jettySize=auto;html=1;entryX=0.429;entryY=0;entryDx=0;entryDy=0;entryPerimeter=0;" edge="1" parent="1" source="6wOYxNDQDc7tmlJQe4-3-72" target="6wOYxNDQDc7tmlJQe4-3-46">
          <mxGeometry relative="1" as="geometry">
            <mxPoint x="510" y="350" as="targetPoint" />
            <Array as="points">
              <mxPoint x="-30" y="250" />
              <mxPoint x="460" y="250" />
            </Array>
          </mxGeometry>
        </mxCell>
        <mxCell id="6wOYxNDQDc7tmlJQe4-3-72" value="Bloquear a Tela Instantaneamente" style="ellipse;whiteSpace=wrap;html=1;" vertex="1" parent="1">
          <mxGeometry x="-100" y="310" width="140" height="70" as="geometry" />
        </mxCell>
        <mxCell id="6wOYxNDQDc7tmlJQe4-3-75" value="Visualizar&amp;nbsp;&lt;div&gt;Relatório de Uso&lt;/div&gt;" style="ellipse;whiteSpace=wrap;html=1;" vertex="1" parent="1">
          <mxGeometry x="-150" y="380" width="140" height="70" as="geometry" />
        </mxCell>
        <mxCell id="6wOYxNDQDc7tmlJQe4-3-108" style="edgeStyle=orthogonalEdgeStyle;rounded=0;orthogonalLoop=1;jettySize=auto;html=1;" edge="1" parent="1" source="6wOYxNDQDc7tmlJQe4-3-78" target="6wOYxNDQDc7tmlJQe4-3-75">
          <mxGeometry relative="1" as="geometry" />
        </mxCell>
        <mxCell id="6wOYxNDQDc7tmlJQe4-3-78" value="Filtrar Dados&amp;nbsp;&lt;div&gt;do Relatório&lt;/div&gt;" style="ellipse;whiteSpace=wrap;html=1;" vertex="1" parent="1">
          <mxGeometry x="-150" y="475" width="140" height="70" as="geometry" />
        </mxCell>
        <mxCell id="6wOYxNDQDc7tmlJQe4-3-80" value="Criança" style="shape=umlActor;verticalLabelPosition=bottom;verticalAlign=top;html=1;" vertex="1" parent="1">
          <mxGeometry x="1210" y="440" width="30" height="60" as="geometry" />
        </mxCell>
        <mxCell id="6wOYxNDQDc7tmlJQe4-3-82" value="Receber Alerta de&amp;nbsp;&lt;div&gt;Limite Próximo&lt;/div&gt;" style="ellipse;whiteSpace=wrap;html=1;" vertex="1" parent="1">
          <mxGeometry x="1330" y="530" width="140" height="70" as="geometry" />
        </mxCell>
        <mxCell id="thRSCPEr3A-UmZOJQnT4-27" style="edgeStyle=orthogonalEdgeStyle;rounded=0;orthogonalLoop=1;jettySize=auto;html=1;entryX=1;entryY=0.5;entryDx=0;entryDy=0;" edge="1" parent="1" source="6wOYxNDQDc7tmlJQe4-3-85" target="thRSCPEr3A-UmZOJQnT4-22">
          <mxGeometry relative="1" as="geometry">
            <Array as="points">
              <mxPoint x="1540" y="465" />
              <mxPoint x="1540" y="215" />
            </Array>
          </mxGeometry>
        </mxCell>
        <mxCell id="6wOYxNDQDc7tmlJQe4-3-85" value="Receber Alerta&lt;div&gt;de Limite Atingido&lt;/div&gt;" style="ellipse;whiteSpace=wrap;html=1;" vertex="1" parent="1">
          <mxGeometry x="1330" y="430" width="140" height="70" as="geometry" />
        </mxCell>
        <mxCell id="thRSCPEr3A-UmZOJQnT4-8" style="edgeStyle=orthogonalEdgeStyle;rounded=0;orthogonalLoop=1;jettySize=auto;html=1;entryX=1;entryY=0;entryDx=0;entryDy=0;" edge="1" parent="1" source="6wOYxNDQDc7tmlJQe4-3-88" target="6wOYxNDQDc7tmlJQe4-3-58">
          <mxGeometry relative="1" as="geometry" />
        </mxCell>
        <mxCell id="6wOYxNDQDc7tmlJQe4-3-88" value="Bloquear Aplicativo Automaticamente" style="ellipse;whiteSpace=wrap;html=1;" vertex="1" parent="1">
          <mxGeometry x="980" y="50" width="140" height="70" as="geometry" />
        </mxCell>
        <mxCell id="6wOYxNDQDc7tmlJQe4-3-90" style="edgeStyle=orthogonalEdgeStyle;rounded=0;orthogonalLoop=1;jettySize=auto;html=1;entryX=0.5;entryY=1;entryDx=0;entryDy=0;" edge="1" parent="1" source="6wOYxNDQDc7tmlJQe4-3-91" target="6wOYxNDQDc7tmlJQe4-3-58">
          <mxGeometry relative="1" as="geometry">
            <mxPoint x="739" y="490" as="targetPoint" />
            <mxPoint x="930" y="560" as="sourcePoint" />
            <Array as="points">
              <mxPoint x="690" y="565" />
            </Array>
          </mxGeometry>
        </mxCell>
        <mxCell id="6wOYxNDQDc7tmlJQe4-3-91" value="Acessar Conteúdo Permitido" style="ellipse;whiteSpace=wrap;html=1;" vertex="1" parent="1">
          <mxGeometry x="950" y="530" width="140" height="70" as="geometry" />
        </mxCell>
        <mxCell id="6wOYxNDQDc7tmlJQe4-3-92" value="&amp;lt;&amp;lt;includes&amp;gt;&amp;gt;" style="text;html=1;align=center;verticalAlign=middle;resizable=0;points=[];autosize=1;strokeColor=none;fillColor=none;fontSize=9;" vertex="1" parent="1">
          <mxGeometry x="870" y="570" width="80" height="20" as="geometry" />
        </mxCell>
        <mxCell id="6wOYxNDQDc7tmlJQe4-3-93" style="edgeStyle=orthogonalEdgeStyle;rounded=0;orthogonalLoop=1;jettySize=auto;html=1;entryX=1;entryY=0.5;entryDx=0;entryDy=0;" edge="1" parent="1" source="6wOYxNDQDc7tmlJQe4-3-94" target="6wOYxNDQDc7tmlJQe4-3-58">
          <mxGeometry relative="1" as="geometry">
            <mxPoint x="760" y="410" as="targetPoint" />
          </mxGeometry>
        </mxCell>
        <mxCell id="6wOYxNDQDc7tmlJQe4-3-94" value="Visualizar Tempo Restante" style="ellipse;whiteSpace=wrap;html=1;" vertex="1" parent="1">
          <mxGeometry x="950" y="430" width="140" height="70" as="geometry" />
        </mxCell>
        <mxCell id="6wOYxNDQDc7tmlJQe4-3-95" value="&amp;lt;&amp;lt;includes&amp;gt;&amp;gt;" style="text;html=1;align=center;verticalAlign=middle;resizable=0;points=[];autosize=1;strokeColor=none;fillColor=none;fontSize=9;" vertex="1" parent="1">
          <mxGeometry x="870" y="470" width="80" height="20" as="geometry" />
        </mxCell>
        <mxCell id="6wOYxNDQDc7tmlJQe4-3-139" style="edgeStyle=orthogonalEdgeStyle;rounded=0;orthogonalLoop=1;jettySize=auto;html=1;entryX=1;entryY=0.5;entryDx=0;entryDy=0;" edge="1" parent="1" source="6wOYxNDQDc7tmlJQe4-3-97" target="6wOYxNDQDc7tmlJQe4-3-88">
          <mxGeometry relative="1" as="geometry">
            <Array as="points">
              <mxPoint x="1250" y="360" />
              <mxPoint x="1250" y="85" />
            </Array>
          </mxGeometry>
        </mxCell>
        <mxCell id="6wOYxNDQDc7tmlJQe4-3-140" style="edgeStyle=orthogonalEdgeStyle;rounded=0;orthogonalLoop=1;jettySize=auto;html=1;entryX=0.5;entryY=1;entryDx=0;entryDy=0;exitX=0;exitY=1;exitDx=0;exitDy=0;" edge="1" parent="1" source="6wOYxNDQDc7tmlJQe4-3-97" target="6wOYxNDQDc7tmlJQe4-3-105">
          <mxGeometry relative="1" as="geometry">
            <Array as="points">
              <mxPoint x="1350" y="400" />
              <mxPoint x="1050" y="400" />
            </Array>
          </mxGeometry>
        </mxCell>
        <mxCell id="6wOYxNDQDc7tmlJQe4-3-97" value="Solicitar mais&amp;nbsp;&lt;div&gt;Tempo&lt;/div&gt;" style="ellipse;whiteSpace=wrap;html=1;" vertex="1" parent="1">
          <mxGeometry x="1330" y="320" width="140" height="70" as="geometry" />
        </mxCell>
        <mxCell id="6wOYxNDQDc7tmlJQe4-3-105" value="Bloquear Tela Automaticamente" style="ellipse;whiteSpace=wrap;html=1;" vertex="1" parent="1">
          <mxGeometry x="980" y="300" width="140" height="70" as="geometry" />
        </mxCell>
        <mxCell id="6wOYxNDQDc7tmlJQe4-3-107" value="&amp;lt;&amp;lt;includes&amp;gt;&amp;gt;" style="text;html=1;align=center;verticalAlign=middle;resizable=0;points=[];autosize=1;strokeColor=none;fillColor=none;fontSize=9;" vertex="1" parent="1">
          <mxGeometry x="315" y="390" width="80" height="20" as="geometry" />
        </mxCell>
        <mxCell id="6wOYxNDQDc7tmlJQe4-3-109" value="&amp;lt;&amp;lt;extends&amp;gt;&amp;gt;" style="text;html=1;align=center;verticalAlign=middle;resizable=0;points=[];autosize=1;strokeColor=none;fillColor=none;fontSize=9;" vertex="1" parent="1">
          <mxGeometry x="-160" y="455" width="80" height="20" as="geometry" />
        </mxCell>
        <mxCell id="6wOYxNDQDc7tmlJQe4-3-112" value="" style="edgeStyle=none;orthogonalLoop=1;jettySize=auto;html=1;rounded=0;exitX=0;exitY=0;exitDx=0;exitDy=0;entryX=0.5;entryY=0;entryDx=0;entryDy=0;" edge="1" parent="1" source="6wOYxNDQDc7tmlJQe4-3-75" target="6wOYxNDQDc7tmlJQe4-3-46">
          <mxGeometry width="80" relative="1" as="geometry">
            <mxPoint x="-120" y="350" as="sourcePoint" />
            <mxPoint x="-40" y="350" as="targetPoint" />
            <Array as="points">
              <mxPoint x="-130" y="220" />
              <mxPoint x="210" y="220" />
              <mxPoint x="470" y="220" />
            </Array>
          </mxGeometry>
        </mxCell>
        <mxCell id="6wOYxNDQDc7tmlJQe4-3-113" value="&amp;lt;&amp;lt;includes&amp;gt;&amp;gt;" style="text;html=1;align=center;verticalAlign=middle;resizable=0;points=[];autosize=1;strokeColor=none;fillColor=none;fontSize=9;" vertex="1" parent="1">
          <mxGeometry x="260" y="320" width="80" height="20" as="geometry" />
        </mxCell>
        <mxCell id="6wOYxNDQDc7tmlJQe4-3-114" value="&amp;lt;&amp;lt;includes&amp;gt;&amp;gt;" style="text;html=1;align=center;verticalAlign=middle;resizable=0;points=[];autosize=1;strokeColor=none;fillColor=none;fontSize=9;" vertex="1" parent="1">
          <mxGeometry x="145" y="270" width="80" height="20" as="geometry" />
        </mxCell>
        <mxCell id="6wOYxNDQDc7tmlJQe4-3-115" value="&amp;lt;&amp;lt;includes&amp;gt;&amp;gt;" style="text;html=1;align=center;verticalAlign=middle;resizable=0;points=[];autosize=1;strokeColor=none;fillColor=none;fontSize=9;" vertex="1" parent="1">
          <mxGeometry x="-30" y="230" width="80" height="20" as="geometry" />
        </mxCell>
        <mxCell id="6wOYxNDQDc7tmlJQe4-3-116" value="&amp;lt;&amp;lt;includes&amp;gt;&amp;gt;" style="text;html=1;align=center;verticalAlign=middle;resizable=0;points=[];autosize=1;strokeColor=none;fillColor=none;fontSize=9;" vertex="1" parent="1">
          <mxGeometry x="-130" y="200" width="80" height="20" as="geometry" />
        </mxCell>
        <mxCell id="6wOYxNDQDc7tmlJQe4-3-124" value="" style="endArrow=none;html=1;rounded=0;entryX=0;entryY=0.5;entryDx=0;entryDy=0;" edge="1" parent="1" target="6wOYxNDQDc7tmlJQe4-3-25">
          <mxGeometry width="50" height="50" relative="1" as="geometry">
            <mxPoint x="100" y="565" as="sourcePoint" />
            <mxPoint x="190" y="490" as="targetPoint" />
          </mxGeometry>
        </mxCell>
        <mxCell id="6wOYxNDQDc7tmlJQe4-3-125" value="" style="endArrow=none;html=1;rounded=0;entryX=0;entryY=0.5;entryDx=0;entryDy=0;" edge="1" parent="1" target="6wOYxNDQDc7tmlJQe4-3-63">
          <mxGeometry width="50" height="50" relative="1" as="geometry">
            <mxPoint x="100" y="540" as="sourcePoint" />
            <mxPoint x="180" y="460" as="targetPoint" />
          </mxGeometry>
        </mxCell>
        <mxCell id="6wOYxNDQDc7tmlJQe4-3-127" value="" style="endArrow=none;html=1;rounded=0;entryX=0.5;entryY=1;entryDx=0;entryDy=0;" edge="1" parent="1" target="6wOYxNDQDc7tmlJQe4-3-66">
          <mxGeometry width="50" height="50" relative="1" as="geometry">
            <mxPoint x="90" y="530" as="sourcePoint" />
            <mxPoint x="120" y="375" as="targetPoint" />
          </mxGeometry>
        </mxCell>
        <mxCell id="6wOYxNDQDc7tmlJQe4-3-128" value="" style="endArrow=none;html=1;rounded=0;entryX=0.5;entryY=1;entryDx=0;entryDy=0;" edge="1" parent="1" target="6wOYxNDQDc7tmlJQe4-3-69">
          <mxGeometry width="50" height="50" relative="1" as="geometry">
            <mxPoint x="75" y="530" as="sourcePoint" />
            <mxPoint x="240" y="430" as="targetPoint" />
          </mxGeometry>
        </mxCell>
        <mxCell id="6wOYxNDQDc7tmlJQe4-3-129" value="" style="endArrow=none;html=1;rounded=0;entryX=1;entryY=1;entryDx=0;entryDy=0;" edge="1" parent="1" target="6wOYxNDQDc7tmlJQe4-3-72">
          <mxGeometry width="50" height="50" relative="1" as="geometry">
            <mxPoint x="60" y="530" as="sourcePoint" />
            <mxPoint x="170" y="390" as="targetPoint" />
          </mxGeometry>
        </mxCell>
        <mxCell id="6wOYxNDQDc7tmlJQe4-3-130" value="" style="endArrow=none;html=1;rounded=0;entryX=1;entryY=0.5;entryDx=0;entryDy=0;" edge="1" parent="1" target="6wOYxNDQDc7tmlJQe4-3-75">
          <mxGeometry width="50" height="50" relative="1" as="geometry">
            <mxPoint x="50" y="540" as="sourcePoint" />
            <mxPoint x="170" y="410" as="targetPoint" />
          </mxGeometry>
        </mxCell>
        <mxCell id="6wOYxNDQDc7tmlJQe4-3-132" value="" style="endArrow=none;html=1;rounded=0;exitX=1;exitY=0.5;exitDx=0;exitDy=0;" edge="1" parent="1" source="6wOYxNDQDc7tmlJQe4-3-94">
          <mxGeometry width="50" height="50" relative="1" as="geometry">
            <mxPoint x="1000" y="420" as="sourcePoint" />
            <mxPoint x="1200" y="465" as="targetPoint" />
          </mxGeometry>
        </mxCell>
        <mxCell id="6wOYxNDQDc7tmlJQe4-3-133" value="" style="endArrow=none;html=1;rounded=0;exitX=1;exitY=0.5;exitDx=0;exitDy=0;" edge="1" parent="1" source="6wOYxNDQDc7tmlJQe4-3-91">
          <mxGeometry width="50" height="50" relative="1" as="geometry">
            <mxPoint x="1190" y="465" as="sourcePoint" />
            <mxPoint x="1200" y="470" as="targetPoint" />
          </mxGeometry>
        </mxCell>
        <mxCell id="6wOYxNDQDc7tmlJQe4-3-134" value="" style="endArrow=none;html=1;rounded=0;entryX=0;entryY=0.5;entryDx=0;entryDy=0;" edge="1" parent="1" target="6wOYxNDQDc7tmlJQe4-3-82">
          <mxGeometry width="50" height="50" relative="1" as="geometry">
            <mxPoint x="1250" y="470" as="sourcePoint" />
            <mxPoint x="1380" y="430" as="targetPoint" />
          </mxGeometry>
        </mxCell>
        <mxCell id="6wOYxNDQDc7tmlJQe4-3-135" value="" style="endArrow=none;html=1;rounded=0;entryX=0;entryY=0.5;entryDx=0;entryDy=0;" edge="1" parent="1" target="6wOYxNDQDc7tmlJQe4-3-85">
          <mxGeometry width="50" height="50" relative="1" as="geometry">
            <mxPoint x="1250" y="465" as="sourcePoint" />
            <mxPoint x="1360" y="440" as="targetPoint" />
          </mxGeometry>
        </mxCell>
        <mxCell id="6wOYxNDQDc7tmlJQe4-3-137" style="edgeStyle=orthogonalEdgeStyle;rounded=0;orthogonalLoop=1;jettySize=auto;html=1;entryX=0.5;entryY=1;entryDx=0;entryDy=0;exitX=0.5;exitY=0;exitDx=0;exitDy=0;endArrow=none;endFill=0;startArrow=classic;startFill=1;" edge="1" parent="1" source="6wOYxNDQDc7tmlJQe4-3-85" target="6wOYxNDQDc7tmlJQe4-3-97">
          <mxGeometry relative="1" as="geometry">
            <mxPoint x="1480" y="380" as="targetPoint" />
            <mxPoint x="1560" y="380" as="sourcePoint" />
          </mxGeometry>
        </mxCell>
        <mxCell id="6wOYxNDQDc7tmlJQe4-3-138" value="&amp;lt;&amp;lt;extends&amp;gt;&amp;gt;" style="text;html=1;align=center;verticalAlign=middle;resizable=0;points=[];autosize=1;strokeColor=none;fillColor=none;fontSize=9;" vertex="1" parent="1">
          <mxGeometry x="1320" y="410" width="80" height="20" as="geometry" />
        </mxCell>
        <mxCell id="6wOYxNDQDc7tmlJQe4-3-142" value="&amp;lt;&amp;lt;extends&amp;gt;&amp;gt;" style="text;html=1;align=center;verticalAlign=middle;resizable=0;points=[];autosize=1;strokeColor=none;fillColor=none;fontSize=9;" vertex="1" parent="1">
          <mxGeometry x="1250" y="340" width="80" height="20" as="geometry" />
        </mxCell>
        <mxCell id="6wOYxNDQDc7tmlJQe4-3-143" value="Aplicação" style="shape=umlActor;verticalLabelPosition=bottom;verticalAlign=top;html=1;" vertex="1" parent="1">
          <mxGeometry x="895" y="170" width="30" height="60" as="geometry" />
        </mxCell>
        <mxCell id="thRSCPEr3A-UmZOJQnT4-10" value="&amp;lt;&amp;lt;extends&amp;gt;&amp;gt;" style="text;html=1;align=center;verticalAlign=middle;resizable=0;points=[];autosize=1;strokeColor=none;fillColor=none;fontSize=9;" vertex="1" parent="1">
          <mxGeometry x="1260" y="380" width="80" height="20" as="geometry" />
        </mxCell>
        <mxCell id="thRSCPEr3A-UmZOJQnT4-11" style="edgeStyle=orthogonalEdgeStyle;rounded=0;orthogonalLoop=1;jettySize=auto;html=1;entryX=0.973;entryY=0.312;entryDx=0;entryDy=0;entryPerimeter=0;" edge="1" parent="1" source="6wOYxNDQDc7tmlJQe4-3-105" target="6wOYxNDQDc7tmlJQe4-3-58">
          <mxGeometry relative="1" as="geometry" />
        </mxCell>
        <mxCell id="thRSCPEr3A-UmZOJQnT4-12" value="&amp;lt;&amp;lt;includes&amp;gt;&amp;gt;" style="text;html=1;align=center;verticalAlign=middle;resizable=0;points=[];autosize=1;strokeColor=none;fillColor=none;fontSize=9;" vertex="1" parent="1">
          <mxGeometry x="900" y="60" width="80" height="20" as="geometry" />
        </mxCell>
        <mxCell id="thRSCPEr3A-UmZOJQnT4-13" value="&amp;lt;&amp;lt;includes&amp;gt;&amp;gt;" style="text;html=1;align=center;verticalAlign=middle;resizable=0;points=[];autosize=1;strokeColor=none;fillColor=none;fontSize=9;" vertex="1" parent="1">
          <mxGeometry x="740" y="290" width="80" height="20" as="geometry" />
        </mxCell>
        <mxCell id="thRSCPEr3A-UmZOJQnT4-15" value="" style="endArrow=none;html=1;rounded=0;entryX=0.5;entryY=1;entryDx=0;entryDy=0;" edge="1" parent="1" target="6wOYxNDQDc7tmlJQe4-3-88">
          <mxGeometry width="50" height="50" relative="1" as="geometry">
            <mxPoint x="930" y="190" as="sourcePoint" />
            <mxPoint x="1040" y="170" as="targetPoint" />
          </mxGeometry>
        </mxCell>
        <mxCell id="thRSCPEr3A-UmZOJQnT4-16" value="" style="endArrow=none;html=1;rounded=0;exitX=0.5;exitY=0;exitDx=0;exitDy=0;" edge="1" parent="1" source="6wOYxNDQDc7tmlJQe4-3-105">
          <mxGeometry width="50" height="50" relative="1" as="geometry">
            <mxPoint x="1120" y="190" as="sourcePoint" />
            <mxPoint x="930" y="200" as="targetPoint" />
          </mxGeometry>
        </mxCell>
        <mxCell id="thRSCPEr3A-UmZOJQnT4-31" style="edgeStyle=orthogonalEdgeStyle;rounded=0;orthogonalLoop=1;jettySize=auto;html=1;entryX=0;entryY=0.5;entryDx=0;entryDy=0;exitX=0.5;exitY=1;exitDx=0;exitDy=0;" edge="1" parent="1" source="thRSCPEr3A-UmZOJQnT4-17" target="thRSCPEr3A-UmZOJQnT4-25">
          <mxGeometry relative="1" as="geometry">
            <Array as="points">
              <mxPoint x="250" y="760" />
              <mxPoint x="-230" y="760" />
              <mxPoint x="-230" y="125" />
            </Array>
            <mxPoint x="250" y="710" as="sourcePoint" />
          </mxGeometry>
        </mxCell>
        <mxCell id="thRSCPEr3A-UmZOJQnT4-17" value="Receber Alerta de&lt;div&gt;Limite Atingido&lt;/div&gt;" style="ellipse;whiteSpace=wrap;html=1;" vertex="1" parent="1">
          <mxGeometry x="180" y="635" width="140" height="70" as="geometry" />
        </mxCell>
        <mxCell id="thRSCPEr3A-UmZOJQnT4-18" value="" style="endArrow=none;html=1;rounded=0;entryX=0;entryY=0.5;entryDx=0;entryDy=0;" edge="1" parent="1" target="thRSCPEr3A-UmZOJQnT4-17">
          <mxGeometry width="50" height="50" relative="1" as="geometry">
            <mxPoint x="100" y="580" as="sourcePoint" />
            <mxPoint x="235" y="560" as="targetPoint" />
          </mxGeometry>
        </mxCell>
        <mxCell id="thRSCPEr3A-UmZOJQnT4-19" style="edgeStyle=orthogonalEdgeStyle;rounded=0;orthogonalLoop=1;jettySize=auto;html=1;exitX=1;exitY=0.5;exitDx=0;exitDy=0;entryX=1;entryY=1;entryDx=0;entryDy=0;" edge="1" parent="1" source="thRSCPEr3A-UmZOJQnT4-17" target="6wOYxNDQDc7tmlJQe4-3-46">
          <mxGeometry relative="1" as="geometry">
            <mxPoint x="550" y="552.0512820512821" as="targetPoint" />
            <mxPoint x="344" y="665" as="sourcePoint" />
            <Array as="points">
              <mxPoint x="580" y="670" />
              <mxPoint x="580" y="510" />
              <mxPoint x="520" y="510" />
            </Array>
          </mxGeometry>
        </mxCell>
        <mxCell id="thRSCPEr3A-UmZOJQnT4-20" value="&amp;lt;&amp;lt;includes&amp;gt;&amp;gt;" style="text;html=1;align=center;verticalAlign=middle;resizable=0;points=[];autosize=1;strokeColor=none;fillColor=none;fontSize=9;" vertex="1" parent="1">
          <mxGeometry x="320" y="650" width="80" height="20" as="geometry" />
        </mxCell>
        <mxCell id="thRSCPEr3A-UmZOJQnT4-33" style="edgeStyle=orthogonalEdgeStyle;rounded=0;orthogonalLoop=1;jettySize=auto;html=1;entryX=0.3;entryY=0.014;entryDx=0;entryDy=0;entryPerimeter=0;" edge="1" parent="1" source="thRSCPEr3A-UmZOJQnT4-21" target="6wOYxNDQDc7tmlJQe4-3-58">
          <mxGeometry relative="1" as="geometry">
            <Array as="points">
              <mxPoint x="1340" y="20" />
              <mxPoint x="662" y="20" />
            </Array>
          </mxGeometry>
        </mxCell>
        <mxCell id="thRSCPEr3A-UmZOJQnT4-21" value="Enviar Alerta de Limite Próximo para Criança" style="ellipse;whiteSpace=wrap;html=1;" vertex="1" parent="1">
          <mxGeometry x="1270" y="100" width="140" height="70" as="geometry" />
        </mxCell>
        <mxCell id="thRSCPEr3A-UmZOJQnT4-22" value="Exibir Alerta de Limite Atingido para Criança" style="ellipse;whiteSpace=wrap;html=1;" vertex="1" parent="1">
          <mxGeometry x="1270" y="180" width="140" height="70" as="geometry" />
        </mxCell>
        <mxCell id="thRSCPEr3A-UmZOJQnT4-23" value="" style="edgeStyle=none;orthogonalLoop=1;jettySize=auto;html=1;rounded=0;entryX=0;entryY=0.5;entryDx=0;entryDy=0;endArrow=none;endFill=0;" edge="1" parent="1" target="thRSCPEr3A-UmZOJQnT4-21">
          <mxGeometry width="80" relative="1" as="geometry">
            <mxPoint x="950" y="190" as="sourcePoint" />
            <mxPoint x="1100" y="190" as="targetPoint" />
            <Array as="points" />
          </mxGeometry>
        </mxCell>
        <mxCell id="thRSCPEr3A-UmZOJQnT4-24" value="" style="edgeStyle=none;orthogonalLoop=1;jettySize=auto;html=1;rounded=0;entryX=0;entryY=0.5;entryDx=0;entryDy=0;endArrow=none;endFill=0;" edge="1" parent="1" target="thRSCPEr3A-UmZOJQnT4-22">
          <mxGeometry width="80" relative="1" as="geometry">
            <mxPoint x="950" y="200" as="sourcePoint" />
            <mxPoint x="1160" y="160" as="targetPoint" />
            <Array as="points" />
          </mxGeometry>
        </mxCell>
        <mxCell id="thRSCPEr3A-UmZOJQnT4-25" value="Enviar Alerta de Limite Atingido para Responsável" style="ellipse;whiteSpace=wrap;html=1;" vertex="1" parent="1">
          <mxGeometry x="500" y="90" width="140" height="70" as="geometry" />
        </mxCell>
        <mxCell id="thRSCPEr3A-UmZOJQnT4-26" value="" style="endArrow=none;html=1;rounded=0;entryX=1;entryY=0.5;entryDx=0;entryDy=0;" edge="1" parent="1" target="thRSCPEr3A-UmZOJQnT4-25">
          <mxGeometry width="50" height="50" relative="1" as="geometry">
            <mxPoint x="880" y="200" as="sourcePoint" />
            <mxPoint x="1080" y="160" as="targetPoint" />
          </mxGeometry>
        </mxCell>
        <mxCell id="thRSCPEr3A-UmZOJQnT4-28" value="" style="edgeStyle=none;orthogonalLoop=1;jettySize=auto;html=1;rounded=0;exitX=1;exitY=0.5;exitDx=0;exitDy=0;entryX=1;entryY=0.5;entryDx=0;entryDy=0;" edge="1" parent="1" source="6wOYxNDQDc7tmlJQe4-3-82" target="thRSCPEr3A-UmZOJQnT4-21">
          <mxGeometry width="80" relative="1" as="geometry">
            <mxPoint x="1490" y="470" as="sourcePoint" />
            <mxPoint x="1570" y="470" as="targetPoint" />
            <Array as="points">
              <mxPoint x="1560" y="565" />
              <mxPoint x="1560" y="320" />
              <mxPoint x="1560" y="135" />
            </Array>
          </mxGeometry>
        </mxCell>
        <mxCell id="thRSCPEr3A-UmZOJQnT4-29" value="&amp;lt;&amp;lt;includes&amp;gt;&amp;gt;" style="text;html=1;align=center;verticalAlign=middle;resizable=0;points=[];autosize=1;strokeColor=none;fillColor=none;fontSize=9;" vertex="1" parent="1">
          <mxGeometry x="1460" y="440" width="80" height="20" as="geometry" />
        </mxCell>
        <mxCell id="thRSCPEr3A-UmZOJQnT4-30" value="&amp;lt;&amp;lt;includes&amp;gt;&amp;gt;" style="text;html=1;align=center;verticalAlign=middle;resizable=0;points=[];autosize=1;strokeColor=none;fillColor=none;fontSize=9;" vertex="1" parent="1">
          <mxGeometry x="1470" y="545" width="80" height="20" as="geometry" />
        </mxCell>
        <mxCell id="thRSCPEr3A-UmZOJQnT4-32" value="&amp;lt;&amp;lt;includes&amp;gt;&amp;gt;" style="text;html=1;align=center;verticalAlign=middle;resizable=0;points=[];autosize=1;strokeColor=none;fillColor=none;fontSize=9;" vertex="1" parent="1">
          <mxGeometry x="170" y="705" width="80" height="20" as="geometry" />
        </mxCell>
        <mxCell id="thRSCPEr3A-UmZOJQnT4-34" value="" style="edgeStyle=none;orthogonalLoop=1;jettySize=auto;html=1;rounded=0;exitX=1;exitY=0;exitDx=0;exitDy=0;entryX=0.5;entryY=0;entryDx=0;entryDy=0;" edge="1" parent="1" source="thRSCPEr3A-UmZOJQnT4-22" target="6wOYxNDQDc7tmlJQe4-3-58">
          <mxGeometry width="80" relative="1" as="geometry">
            <mxPoint x="1500" y="170" as="sourcePoint" />
            <mxPoint x="780" y="400" as="targetPoint" />
            <Array as="points">
              <mxPoint x="1520" y="190" />
              <mxPoint x="1520" y="40" />
              <mxPoint x="690" y="40" />
            </Array>
          </mxGeometry>
        </mxCell>
        <mxCell id="thRSCPEr3A-UmZOJQnT4-35" value="&amp;lt;&amp;lt;includes&amp;gt;&amp;gt;" style="text;html=1;align=center;verticalAlign=middle;resizable=0;points=[];autosize=1;strokeColor=none;fillColor=none;fontSize=9;" vertex="1" parent="1">
          <mxGeometry x="1340" y="80" width="80" height="20" as="geometry" />
        </mxCell>
        <mxCell id="thRSCPEr3A-UmZOJQnT4-36" value="&amp;lt;&amp;lt;includes&amp;gt;&amp;gt;" style="text;html=1;align=center;verticalAlign=middle;resizable=0;points=[];autosize=1;strokeColor=none;fillColor=none;fontSize=9;" vertex="1" parent="1">
          <mxGeometry x="1410" y="170" width="80" height="20" as="geometry" />
        </mxCell>
        <mxCell id="4XNc0jTiDJlzQaRZb4xH-2" value="Aprovar Solicitação de Tempo da Criança" style="ellipse;whiteSpace=wrap;html=1;" vertex="1" parent="1">
          <mxGeometry x="-150" y="650" width="140" height="70" as="geometry" />
        </mxCell>
        <mxCell id="4XNc0jTiDJlzQaRZb4xH-3" value="" style="endArrow=none;html=1;rounded=0;entryX=1;entryY=0;entryDx=0;entryDy=0;" edge="1" parent="1" target="4XNc0jTiDJlzQaRZb4xH-2">
          <mxGeometry width="50" height="50" relative="1" as="geometry">
            <mxPoint x="50" y="570" as="sourcePoint" />
            <mxPoint x="60" y="530" as="targetPoint" />
          </mxGeometry>
        </mxCell>
        <mxCell id="4XNc0jTiDJlzQaRZb4xH-4" value="" style="edgeStyle=none;orthogonalLoop=1;jettySize=auto;html=1;rounded=0;entryX=0.929;entryY=0.257;entryDx=0;entryDy=0;entryPerimeter=0;exitX=0;exitY=0.5;exitDx=0;exitDy=0;" edge="1" parent="1" source="4XNc0jTiDJlzQaRZb4xH-2" target="6wOYxNDQDc7tmlJQe4-3-46">
          <mxGeometry width="80" relative="1" as="geometry">
            <mxPoint x="-160" y="650" as="sourcePoint" />
            <mxPoint x="619" y="430" as="targetPoint" />
            <Array as="points">
              <mxPoint x="-200" y="685" />
              <mxPoint x="-200" y="440" />
              <mxPoint x="-200" y="160" />
              <mxPoint x="160" y="160" />
              <mxPoint x="530" y="160" />
            </Array>
          </mxGeometry>
        </mxCell>
        <mxCell id="4XNc0jTiDJlzQaRZb4xH-5" value="&amp;lt;&amp;lt;includes&amp;gt;&amp;gt;" style="text;html=1;align=center;verticalAlign=middle;resizable=0;points=[];autosize=1;strokeColor=none;fillColor=none;fontSize=9;" vertex="1" parent="1">
          <mxGeometry x="-200" y="140" width="80" height="20" as="geometry" />
        </mxCell>
        <mxCell id="4XNc0jTiDJlzQaRZb4xH-6" value="Visualizar Feed de Notícias" style="ellipse;whiteSpace=wrap;html=1;" vertex="1" parent="1">
          <mxGeometry x="-150" y="560" width="140" height="70" as="geometry" />
        </mxCell>
        <mxCell id="4XNc0jTiDJlzQaRZb4xH-7" value="" style="endArrow=none;html=1;rounded=0;entryX=1;entryY=0.5;entryDx=0;entryDy=0;" edge="1" parent="1" target="4XNc0jTiDJlzQaRZb4xH-6">
          <mxGeometry width="50" height="50" relative="1" as="geometry">
            <mxPoint x="50" y="560" as="sourcePoint" />
            <mxPoint x="80" y="520" as="targetPoint" />
          </mxGeometry>
        </mxCell>
        <mxCell id="4XNc0jTiDJlzQaRZb4xH-8" value="" style="edgeStyle=none;orthogonalLoop=1;jettySize=auto;html=1;rounded=0;entryX=0.571;entryY=0;entryDx=0;entryDy=0;exitX=0;exitY=0.5;exitDx=0;exitDy=0;entryPerimeter=0;" edge="1" parent="1" source="4XNc0jTiDJlzQaRZb4xH-6" target="6wOYxNDQDc7tmlJQe4-3-46">
          <mxGeometry width="80" relative="1" as="geometry">
            <mxPoint x="-170" y="560" as="sourcePoint" />
            <mxPoint x="479" y="410" as="targetPoint" />
            <Array as="points">
              <mxPoint x="-170" y="595" />
              <mxPoint x="-170" y="190" />
              <mxPoint x="170" y="190" />
              <mxPoint x="480" y="190" />
            </Array>
          </mxGeometry>
        </mxCell>
      </root>
    </mxGraphModel>
  </diagram>
</mxfile>
